<?xml version="1.0" encoding="UTF-8"?>
<svg width="150px" height="50px" viewBox="0 0 150 50" version="1.1" xmlns="http://www.w3.org/2000/svg" xmlns:xlink="http://www.w3.org/1999/xlink">
    <title>Letter</title>
    <g id="Letter" stroke="none" stroke-width="1" fill="none" fill-rule="evenodd">
        <rect fill="#B6C8E1" x="0" y="0" width="150" height="50"></rect>
        <path d="M11.3129883,32 L11.3129883,24.2070312 C11.4633789,24.0087891 11.6547852,23.8190918 11.887207,23.6379395 C12.1196289,23.4567871 12.3708496,23.2978516 12.6408691,23.1611328 C12.9108887,23.0244141 13.1877441,22.9150391 13.4714355,22.8330078 C13.755127,22.7509766 14.0302734,22.7099609 14.296875,22.7099609 C14.5498047,22.7099609 14.7924805,22.7680664 15.0249023,22.8842773 C15.2573242,23.0004883 15.4589844,23.1577148 15.6298828,23.355957 C15.8007812,23.5541992 15.9375,23.7849121 16.0400391,24.0480957 C16.1425781,24.3112793 16.1938477,24.5898438 16.1938477,24.8837891 L16.1938477,24.8837891 L16.1938477,32 L18.2753906,32 L18.2753906,24.2070312 C18.4052734,24.0019531 18.5795898,23.8088379 18.7983398,23.6276855 C19.0170898,23.4465332 19.2597656,23.2875977 19.5263672,23.1508789 C19.7929688,23.0141602 20.0749512,22.9064941 20.3723145,22.8278809 C20.6696777,22.7492676 20.9619141,22.7099609 21.2490234,22.7099609 C21.5019531,22.7099609 21.7429199,22.7680664 21.9719238,22.8842773 C22.2009277,23.0004883 22.4008789,23.1577148 22.5717773,23.355957 C22.7426758,23.5541992 22.8776855,23.7849121 22.9768066,24.0480957 C23.0759277,24.3112793 23.1254883,24.5898438 23.1254883,24.8837891 L23.1254883,24.8837891 L23.1254883,32 L25.2070312,32 L25.2070312,24.5966797 C25.2070312,24.1455078 25.1318359,23.7199707 24.9814453,23.3200684 C24.8310547,22.920166 24.6259766,22.5715332 24.3662109,22.2741699 C24.1064453,21.9768066 23.8039551,21.7409668 23.4587402,21.5666504 C23.1135254,21.392334 22.7426758,21.3051758 22.3461914,21.3051758 C21.949707,21.3051758 21.5446777,21.3632812 21.1311035,21.4794922 C20.7175293,21.5957031 20.3261719,21.7529297 19.9570312,21.9511719 C19.5878906,22.1494141 19.2512207,22.3835449 18.9470215,22.6535645 C18.6428223,22.923584 18.4052734,23.2124023 18.234375,23.5200195 C18.1728516,23.1987305 18.0446777,22.9030762 17.8498535,22.6330566 C17.6550293,22.3630371 17.4226074,22.1289062 17.1525879,21.9306641 C16.8825684,21.7324219 16.588623,21.5786133 16.270752,21.4692383 C15.9528809,21.3598633 15.6401367,21.3051758 15.3325195,21.3051758 C15.0112305,21.3051758 14.6728516,21.3632812 14.3173828,21.4794922 C13.9619141,21.5957031 13.6064453,21.7546387 13.2509766,21.9562988 C12.8955078,22.157959 12.550293,22.3903809 12.215332,22.6535645 C11.8803711,22.916748 11.5795898,23.1918945 11.3129883,23.4790039 L11.3129883,23.4790039 L11.3129883,21.3051758 L10.7182617,21.3051758 L9.22119141,21.8896484 L9.22119141,32 L11.3129883,32 Z M30.8671875,32.2255859 C31.3115234,32.2255859 31.7028809,32.1743164 32.0412598,32.0717773 C32.3796387,31.9692383 32.6872559,31.8376465 32.9641113,31.677002 C33.2409668,31.5163574 33.4973145,31.3369141 33.7331543,31.1386719 C33.9689941,30.9404297 34.2099609,30.7490234 34.4560547,30.5644531 C34.4560547,30.8857422 34.5500488,31.1711426 34.7380371,31.4206543 C34.9260254,31.670166 35.1567383,31.8632812 35.4301758,32 L35.4301758,32 L37.5219727,32 C37.2485352,31.8632812 37.0178223,31.670166 36.829834,31.4206543 C36.6418457,31.1711426 36.5478516,30.8857422 36.5478516,30.5644531 L36.5478516,30.5644531 L36.5478516,24.0839844 C36.5478516,23.6669922 36.4880371,23.2858887 36.3684082,22.9406738 C36.2487793,22.595459 36.0488281,22.3032227 35.7685547,22.0639648 C35.4882812,21.824707 35.1157227,21.6384277 34.6508789,21.505127 C34.1860352,21.3718262 33.6118164,21.3051758 32.9282227,21.3051758 C32.3950195,21.3051758 31.8806152,21.3701172 31.3850098,21.5 C30.8894043,21.6298828 30.4467773,21.8161621 30.0571289,22.0588379 C29.6674805,22.3015137 29.3444824,22.6005859 29.0881348,22.9560547 C28.8317871,23.3115234 28.6762695,23.7148438 28.621582,24.1660156 L28.621582,24.1660156 L30.5288086,24.1660156 C30.5698242,23.8720703 30.6501465,23.5935059 30.7697754,23.3303223 C30.8894043,23.0671387 31.0432129,22.8381348 31.2312012,22.6433105 C31.4191895,22.4484863 31.6362305,22.2929688 31.8823242,22.1767578 C32.128418,22.0605469 32.3984375,22.0024414 32.6923828,22.0024414 C33,22.0024414 33.2648926,22.045166 33.4870605,22.1306152 C33.7092285,22.2160645 33.8920898,22.3596191 34.0356445,22.5612793 C34.1791992,22.7629395 34.2851562,23.027832 34.3535156,23.355957 C34.421875,23.684082 34.4560547,24.0874023 34.4560547,24.565918 L34.4560547,24.565918 L34.4560547,25.222168 C33.9912109,25.3383789 33.5126953,25.4648438 33.0205078,25.6015625 C32.5283203,25.7382812 32.0498047,25.8937988 31.5849609,26.0681152 C31.1201172,26.2424316 30.6826172,26.4406738 30.2724609,26.6628418 C29.8623047,26.8850098 29.501709,27.1379395 29.1906738,27.4216309 C28.8796387,27.7053223 28.6352539,28.0283203 28.4575195,28.390625 C28.2797852,28.7529297 28.190918,29.159668 28.190918,29.6108398 C28.190918,29.9799805 28.2541504,30.3251953 28.3806152,30.6464844 C28.5070801,30.9677734 28.6848145,31.2446289 28.9138184,31.4770508 C29.1428223,31.7094727 29.4230957,31.892334 29.7546387,32.0256348 C30.0861816,32.1589355 30.4570312,32.2255859 30.8671875,32.2255859 Z M31.9746094,30.9541016 C31.7558594,30.9541016 31.5439453,30.904541 31.3388672,30.8054199 C31.1337891,30.7062988 30.9526367,30.5695801 30.7954102,30.3952637 C30.6381836,30.2209473 30.5117188,30.0192871 30.4160156,29.7902832 C30.3203125,29.5612793 30.2724609,29.3168945 30.2724609,29.0571289 C30.2724609,28.8110352 30.3339844,28.5751953 30.4570312,28.3496094 C30.5800781,28.1240234 30.7475586,27.9086914 30.9594727,27.7036133 C31.1713867,27.4985352 31.4174805,27.3071289 31.6977539,27.1293945 C31.9780273,26.9516602 32.2719727,26.7858887 32.5795898,26.6320801 C32.887207,26.4782715 33.2016602,26.3398438 33.5229492,26.2167969 C33.8442383,26.09375 34.1552734,25.984375 34.4560547,25.8886719 L34.4560547,25.8886719 L34.4560547,29.8056641 C34.2509766,29.9628906 34.0493164,30.1098633 33.8510742,30.246582 C33.652832,30.3833008 33.4545898,30.5046387 33.2563477,30.6105957 C33.0581055,30.7165527 32.8530273,30.800293 32.6411133,30.8618164 C32.4291992,30.9233398 32.2070312,30.9541016 31.9746094,30.9541016 Z M42.0029297,32 L42.0029297,24.6889648 C42.1464844,24.3813477 42.3139648,24.1130371 42.5053711,23.8840332 C42.6967773,23.6550293 42.9052734,23.467041 43.1308594,23.3200684 C43.3564453,23.1730957 43.5939941,23.0620117 43.8435059,22.9868164 C44.0930176,22.9116211 44.3476562,22.8740234 44.6074219,22.8740234 C44.7714844,22.8740234 44.9355469,22.8808594 45.0996094,22.8945312 C45.2636719,22.9082031 45.4243164,22.9406738 45.581543,22.9919434 C45.7387695,23.0432129 45.8925781,23.1149902 46.0429688,23.2072754 C46.1933594,23.2995605 46.3369141,23.4208984 46.4736328,23.5712891 L46.4736328,23.5712891 L47.1298828,21.8178711 C46.8701172,21.6401367 46.5915527,21.5102539 46.2941895,21.4282227 C45.9968262,21.3461914 45.6943359,21.3051758 45.3867188,21.3051758 C45.0449219,21.3051758 44.708252,21.3581543 44.376709,21.4641113 C44.045166,21.5700684 43.7307129,21.71875 43.4333496,21.9101562 C43.1359863,22.1015625 42.8642578,22.3271484 42.6181641,22.5869141 C42.3720703,22.8466797 42.1669922,23.1337891 42.0029297,23.4482422 L42.0029297,23.4482422 L41.7260742,21.3051758 L41.4082031,21.3051758 L39.9213867,21.8793945 L39.9213867,32 L42.0029297,32 Z M50.1855469,18.6699219 C50.3496094,18.6699219 50.503418,18.6391602 50.6469727,18.5776367 C50.7905273,18.5161133 50.9169922,18.4306641 51.0263672,18.3212891 C51.1357422,18.2119141 51.2211914,18.0854492 51.2827148,17.9418945 C51.3442383,17.7983398 51.375,17.6445312 51.375,17.4804688 C51.375,17.3164062 51.3442383,17.1625977 51.2827148,17.019043 C51.2211914,16.8754883 51.1357422,16.7490234 51.0263672,16.6396484 C50.9169922,16.5302734 50.7905273,16.4448242 50.6469727,16.3833008 C50.503418,16.3217773 50.3496094,16.2910156 50.1855469,16.2910156 C50.0214844,16.2910156 49.8676758,16.3217773 49.7241211,16.3833008 C49.5805664,16.4448242 49.4541016,16.5302734 49.3447266,16.6396484 C49.2353516,16.7490234 49.1499023,16.8754883 49.0883789,17.019043 C49.0268555,17.1625977 48.9960938,17.3164062 48.9960938,17.4804688 C48.9960938,17.6445312 49.0268555,17.7983398 49.0883789,17.9418945 C49.1499023,18.0854492 49.2353516,18.2119141 49.3447266,18.3212891 C49.4541016,18.4306641 49.5805664,18.5161133 49.7241211,18.5776367 C49.8676758,18.6391602 50.0214844,18.6699219 50.1855469,18.6699219 Z M51.2314453,32 L51.2314453,21.3051758 L50.6264648,21.3051758 L49.1601562,21.8999023 L49.1601562,32 L51.2314453,32 Z M59.90625,32.2255859 C60.7060547,32.2255859 61.442627,32.0734863 62.1159668,31.7692871 C62.7893066,31.4650879 63.3720703,31.0515137 63.8642578,30.5285645 C64.3564453,30.0056152 64.7409668,29.3937988 65.0178223,28.6931152 C65.2946777,27.9924316 65.4331055,27.2456055 65.4331055,26.4526367 C65.4331055,25.7348633 65.2946777,25.0632324 65.0178223,24.4377441 C64.7409668,23.8122559 64.3564453,23.2670898 63.8642578,22.8022461 C63.3720703,22.3374023 62.7893066,21.9716797 62.1159668,21.7050781 C61.442627,21.4384766 60.7060547,21.3051758 59.90625,21.3051758 C59.0996094,21.3051758 58.3579102,21.4504395 57.6811523,21.7409668 C57.0043945,22.0314941 56.4199219,22.4296875 55.9277344,22.9355469 C55.4355469,23.4414062 55.0510254,24.0344238 54.7741699,24.7145996 C54.4973145,25.3947754 54.3588867,26.1210938 54.3588867,26.8935547 C54.3588867,27.6318359 54.4973145,28.3239746 54.7741699,28.9699707 C55.0510254,29.6159668 55.4355469,30.1799316 55.9277344,30.6618652 C56.4199219,31.1437988 57.0043945,31.5249023 57.6811523,31.8051758 C58.3579102,32.0854492 59.0996094,32.2255859 59.90625,32.2255859 Z M60.3061523,31.456543 C59.7319336,31.456543 59.2209473,31.3112793 58.7731934,31.020752 C58.3254395,30.7302246 57.9460449,30.3354492 57.6350098,29.8364258 C57.3239746,29.3374023 57.0881348,28.7529297 56.9274902,28.0830078 C56.7668457,27.4130859 56.6865234,26.6953125 56.6865234,25.9296875 C56.6865234,25.4033203 56.7617188,24.9060059 56.9121094,24.4377441 C57.0625,23.9694824 57.2624512,23.5610352 57.5119629,23.2124023 C57.7614746,22.8637695 58.050293,22.588623 58.378418,22.3869629 C58.706543,22.1853027 59.0449219,22.0844727 59.3935547,22.0844727 C60.0703125,22.0844727 60.6445312,22.2263184 61.1162109,22.5100098 C61.5878906,22.7937012 61.9707031,23.1816406 62.2646484,23.6738281 C62.5585938,24.1660156 62.7705078,24.7436523 62.9003906,25.4067383 C63.0302734,26.0698242 63.0952148,26.7807617 63.0952148,27.5395508 C63.0952148,28.065918 63.0268555,28.5649414 62.8901367,29.0366211 C62.753418,29.5083008 62.5620117,29.923584 62.315918,30.2824707 C62.0698242,30.6413574 61.7758789,30.9267578 61.434082,31.1386719 C61.0922852,31.3505859 60.7163086,31.456543 60.3061523,31.456543 Z M69.637207,18.6699219 C69.8012695,18.6699219 69.9550781,18.6391602 70.0986328,18.5776367 C70.2421875,18.5161133 70.3686523,18.4306641 70.4780273,18.3212891 C70.5874023,18.2119141 70.6728516,18.0854492 70.734375,17.9418945 C70.7958984,17.7983398 70.8266602,17.6445312 70.8266602,17.4804688 C70.8266602,17.3164062 70.7958984,17.1625977 70.734375,17.019043 C70.6728516,16.8754883 70.5874023,16.7490234 70.4780273,16.6396484 C70.3686523,16.5302734 70.2421875,16.4448242 70.0986328,16.3833008 C69.9550781,16.3217773 69.8012695,16.2910156 69.637207,16.2910156 C69.4731445,16.2910156 69.3193359,16.3217773 69.1757812,16.3833008 C69.0322266,16.4448242 68.9057617,16.5302734 68.7963867,16.6396484 C68.6870117,16.7490234 68.6015625,16.8754883 68.5400391,17.019043 C68.4785156,17.1625977 68.4477539,17.3164062 68.4477539,17.4804688 C68.4477539,17.6445312 68.4785156,17.7983398 68.5400391,17.9418945 C68.6015625,18.0854492 68.6870117,18.2119141 68.7963867,18.3212891 C68.9057617,18.4306641 69.0322266,18.5161133 69.1757812,18.5776367 C69.3193359,18.6391602 69.4731445,18.6699219 69.637207,18.6699219 Z M66.8583984,36.8398438 C67.4121094,36.8398438 67.9213867,36.7834473 68.3862305,36.6706543 C68.8510742,36.5578613 69.2526855,36.3305664 69.5910645,35.9887695 C69.9294434,35.6469727 70.1943359,35.1582031 70.3857422,34.5224609 C70.5771484,33.8867188 70.6728516,33.0458984 70.6728516,32 L70.6728516,32 L70.6728516,21.3051758 L70.078125,21.3051758 L68.6015625,21.8999023 L68.6015625,34.2866211 C68.6015625,34.628418 68.5759277,34.9121094 68.5246582,35.1376953 C68.4733887,35.3632812 68.4016113,35.5444336 68.3093262,35.6811523 C68.217041,35.8178711 68.104248,35.9152832 67.9709473,35.9733887 C67.8376465,36.0314941 67.6889648,36.0605469 67.5249023,36.0605469 C67.2719727,36.0605469 67.0412598,36.0246582 66.8327637,35.9528809 C66.6242676,35.8811035 66.4345703,35.7836914 66.2636719,35.6606445 C66.0927734,35.5375977 65.9406738,35.394043 65.807373,35.2299805 C65.6740723,35.065918 65.5561523,34.8916016 65.4536133,34.7070312 L65.4536133,34.7070312 L64.1308594,35.6708984 C64.4726562,36.0195312 64.8845215,36.3015137 65.3664551,36.5168457 C65.8483887,36.7321777 66.3457031,36.8398438 66.8583984,36.8398438 Z M82.3930664,32.2255859 C82.6870117,32.2255859 82.987793,32.1965332 83.2954102,32.1384277 C83.6030273,32.0803223 83.9089355,31.998291 84.2131348,31.892334 C84.517334,31.786377 84.8095703,31.6564941 85.0898438,31.5026855 C85.3701172,31.348877 85.6298828,31.1762695 85.8691406,30.9848633 L85.8691406,30.9848633 L85.8691406,32 L87.9404297,32 L87.9404297,16.1474609 L87.3354492,16.1474609 L85.8691406,16.7421875 L85.8691406,22.2792969 C85.5410156,21.9853516 85.1872559,21.7495117 84.8078613,21.5717773 C84.4284668,21.394043 83.9824219,21.3051758 83.4697266,21.3051758 C82.7109375,21.3051758 81.998291,21.4624023 81.3317871,21.7768555 C80.6652832,22.0913086 80.0825195,22.5100098 79.5834961,23.032959 C79.0844727,23.5559082 78.6896973,24.1523438 78.3991699,24.8222656 C78.1086426,25.4921875 77.9633789,26.1826172 77.9633789,26.8935547 C77.9633789,27.6113281 78.0795898,28.2932129 78.3120117,28.939209 C78.5444336,29.5852051 78.8605957,30.1508789 79.260498,30.6362305 C79.6604004,31.121582 80.1286621,31.5078125 80.6652832,31.7949219 C81.2019043,32.0820312 81.777832,32.2255859 82.3930664,32.2255859 Z M83.5620117,31.0976562 C83.1040039,31.0976562 82.6750488,30.9729004 82.2751465,30.7233887 C81.8752441,30.473877 81.5266113,30.1320801 81.229248,29.697998 C80.9318848,29.263916 80.6977539,28.7563477 80.5268555,28.175293 C80.355957,27.5942383 80.2705078,26.96875 80.2705078,26.2988281 C80.2705078,25.6767578 80.3491211,25.107666 80.5063477,24.5915527 C80.6635742,24.0754395 80.8771973,23.6311035 81.1472168,23.2585449 C81.4172363,22.8859863 81.7333984,22.597168 82.0957031,22.3920898 C82.4580078,22.1870117 82.8476562,22.0844727 83.2646484,22.0844727 C83.5791016,22.0844727 83.8918457,22.151123 84.2028809,22.2844238 C84.513916,22.4177246 84.7924805,22.6057129 85.0385742,22.8483887 C85.284668,23.0910645 85.4846191,23.3815918 85.6384277,23.7199707 C85.7922363,24.0583496 85.8691406,24.4326172 85.8691406,24.8427734 L85.8691406,24.8427734 L85.8691406,30.0209961 C85.7392578,30.1645508 85.5871582,30.3012695 85.4128418,30.4311523 C85.2385254,30.5610352 85.0522461,30.6755371 84.8540039,30.7746582 C84.6557617,30.8737793 84.4455566,30.9523926 84.2233887,31.010498 C84.0012207,31.0686035 83.7807617,31.0976562 83.5620117,31.0976562 Z M96.0512695,32.2255859 C96.5913086,32.2255859 97.1245117,32.1230469 97.6508789,31.9179688 C98.1772461,31.7128906 98.6643066,31.4343262 99.1120605,31.0822754 C99.5598145,30.7302246 99.9511719,30.3183594 100.286133,29.8466797 C100.621094,29.375 100.86377,28.8691406 101.01416,28.3291016 L101.01416,28.3291016 L100.40918,28.0625 C100.313477,28.390625 100.145996,28.7084961 99.9067383,29.0161133 C99.6674805,29.3237305 99.3786621,29.597168 99.0402832,29.8364258 C98.7019043,30.0756836 98.3242188,30.2687988 97.9072266,30.4157715 C97.4902344,30.5627441 97.0561523,30.6362305 96.6049805,30.6362305 C96.0649414,30.6362305 95.5693359,30.5131836 95.1181641,30.2670898 C94.6669922,30.0209961 94.2773438,29.6791992 93.9492188,29.2416992 C93.6210938,28.8041992 93.3664551,28.284668 93.1853027,27.6831055 C93.0041504,27.081543 92.9135742,26.4287109 92.9135742,25.7246094 L92.9135742,25.7246094 L100.737305,25.7246094 C100.737305,25.1435547 100.622803,24.5864258 100.393799,24.0532227 C100.164795,23.5200195 99.8435059,23.0500488 99.4299316,22.6433105 C99.0163574,22.2365723 98.5224609,21.9118652 97.9482422,21.6691895 C97.3740234,21.4265137 96.7451172,21.3051758 96.0615234,21.3051758 C95.2822266,21.3051758 94.576416,21.4521484 93.9440918,21.7460938 C93.3117676,22.0400391 92.7700195,22.4467773 92.3188477,22.9663086 C91.8676758,23.4858398 91.519043,24.1027832 91.2729492,24.8171387 C91.0268555,25.5314941 90.9038086,26.309082 90.9038086,27.1499023 C90.9038086,27.847168 91.0388184,28.505127 91.3088379,29.1237793 C91.5788574,29.7424316 91.9462891,30.2807617 92.4111328,30.7387695 C92.8759766,31.1967773 93.4211426,31.559082 94.0466309,31.8256836 C94.6721191,32.0922852 95.340332,32.2255859 96.0512695,32.2255859 Z M98.1225586,24.8837891 L92.9238281,24.8735352 C92.9511719,24.4770508 93.0383301,24.1079102 93.1853027,23.7661133 C93.3322754,23.4243164 93.5185547,23.1286621 93.7441406,22.8791504 C93.9697266,22.6296387 94.2260742,22.4348145 94.5131836,22.2946777 C94.800293,22.154541 95.1010742,22.0844727 95.4155273,22.0844727 C95.7915039,22.0844727 96.1435547,22.15625 96.4716797,22.2998047 C96.7998047,22.4433594 97.0869141,22.6398926 97.3330078,22.8894043 C97.5791016,23.138916 97.7722168,23.4345703 97.9123535,23.7763672 C98.0524902,24.1181641 98.1225586,24.4873047 98.1225586,24.8837891 L98.1225586,24.8837891 Z M107.145996,32.2255859 C107.822754,32.2255859 108.410645,32.1435547 108.909668,31.9794922 C109.408691,31.8154297 109.823975,31.5915527 110.155518,31.3078613 C110.487061,31.0241699 110.734863,30.689209 110.898926,30.3029785 C111.062988,29.916748 111.14502,29.5014648 111.14502,29.0571289 C111.14502,28.6196289 111.057861,28.2368164 110.883545,27.9086914 C110.709229,27.5805664 110.478516,27.291748 110.191406,27.0422363 C109.904297,26.7927246 109.577881,26.5722656 109.212158,26.3808594 C108.846436,26.1894531 108.473877,26.0117188 108.094482,25.8476562 C107.715088,25.6835938 107.342529,25.5229492 106.976807,25.3657227 C106.611084,25.2084961 106.284668,25.0358887 105.997559,24.8479004 C105.710449,24.6599121 105.479736,24.449707 105.30542,24.2172852 C105.131104,23.9848633 105.043945,23.7114258 105.043945,23.3969727 C105.043945,23.2055664 105.093506,23.0244141 105.192627,22.8535156 C105.291748,22.6826172 105.428467,22.5339355 105.602783,22.4074707 C105.7771,22.2810059 105.987305,22.1818848 106.233398,22.1101074 C106.479492,22.0383301 106.75293,22.0024414 107.053711,22.0024414 C107.607422,22.0024414 108.128662,22.161377 108.617432,22.479248 C109.106201,22.7971191 109.548828,23.2807617 109.945312,23.9301758 L109.945312,23.9301758 L110.714355,23.2431641 C110.393066,22.8330078 110.088867,22.4997559 109.801758,22.2434082 C109.514648,21.9870605 109.22583,21.7905273 108.935303,21.6538086 C108.644775,21.5170898 108.349121,21.4248047 108.04834,21.3769531 C107.747559,21.3291016 107.422852,21.3051758 107.074219,21.3051758 C106.554688,21.3051758 106.076172,21.3786621 105.638672,21.5256348 C105.201172,21.6726074 104.823486,21.8759766 104.505615,22.1357422 C104.187744,22.3955078 103.939941,22.704834 103.762207,23.0637207 C103.584473,23.4226074 103.495605,23.8105469 103.495605,24.2275391 C103.495605,24.671875 103.575928,25.0598145 103.736572,25.3913574 C103.897217,25.7229004 104.109131,26.0151367 104.372314,26.2680664 C104.635498,26.5209961 104.93457,26.7414551 105.269531,26.9294434 C105.604492,27.1174316 105.946289,27.295166 106.294922,27.4626465 C106.643555,27.630127 106.985352,27.7924805 107.320312,27.949707 C107.655273,28.1069336 107.954346,28.279541 108.217529,28.4675293 C108.480713,28.6555176 108.692627,28.8691406 108.853271,29.1083984 C109.013916,29.3476562 109.094238,29.6279297 109.094238,29.9492188 C109.094238,30.1474609 109.046387,30.3405762 108.950684,30.5285645 C108.85498,30.7165527 108.719971,30.8823242 108.545654,31.0258789 C108.371338,31.1694336 108.164551,31.2839355 107.925293,31.3693848 C107.686035,31.454834 107.42627,31.4975586 107.145996,31.4975586 C106.845215,31.4975586 106.56665,31.4616699 106.310303,31.3898926 C106.053955,31.3181152 105.804443,31.2019043 105.561768,31.0412598 C105.319092,30.8806152 105.081543,30.6755371 104.849121,30.4260254 C104.616699,30.1765137 104.374023,29.8740234 104.121094,29.5185547 L104.121094,29.5185547 L103.27002,30.2875977 C103.584473,30.6977539 103.905762,31.0292969 104.233887,31.2822266 C104.562012,31.5351562 104.890137,31.7316895 105.218262,31.8718262 C105.546387,32.0119629 105.872803,32.105957 106.19751,32.1538086 C106.522217,32.2016602 106.838379,32.2255859 107.145996,32.2255859 Z M115.287598,18.6699219 C115.45166,18.6699219 115.605469,18.6391602 115.749023,18.5776367 C115.892578,18.5161133 116.019043,18.4306641 116.128418,18.3212891 C116.237793,18.2119141 116.323242,18.0854492 116.384766,17.9418945 C116.446289,17.7983398 116.477051,17.6445312 116.477051,17.4804688 C116.477051,17.3164062 116.446289,17.1625977 116.384766,17.019043 C116.323242,16.8754883 116.237793,16.7490234 116.128418,16.6396484 C116.019043,16.5302734 115.892578,16.4448242 115.749023,16.3833008 C115.605469,16.3217773 115.45166,16.2910156 115.287598,16.2910156 C115.123535,16.2910156 114.969727,16.3217773 114.826172,16.3833008 C114.682617,16.4448242 114.556152,16.5302734 114.446777,16.6396484 C114.337402,16.7490234 114.251953,16.8754883 114.19043,17.019043 C114.128906,17.1625977 114.098145,17.3164062 114.098145,17.4804688 C114.098145,17.6445312 114.128906,17.7983398 114.19043,17.9418945 C114.251953,18.0854492 114.337402,18.2119141 114.446777,18.3212891 C114.556152,18.4306641 114.682617,18.5161133 114.826172,18.5776367 C114.969727,18.6391602 115.123535,18.6699219 115.287598,18.6699219 Z M116.333496,32 L116.333496,21.3051758 L115.728516,21.3051758 L114.262207,21.8999023 L114.262207,32 L116.333496,32 Z M123.839355,36.8398438 C124.810059,36.8398438 125.679932,36.7441406 126.448975,36.5527344 C127.218018,36.3613281 127.869141,36.0913086 128.402344,35.7426758 C128.935547,35.394043 129.343994,34.9719238 129.627686,34.4763184 C129.911377,33.9807129 130.053223,33.4287109 130.053223,32.8203125 C130.053223,32.4785156 130.001953,32.1708984 129.899414,31.8974609 C129.796875,31.6240234 129.622559,31.3864746 129.376465,31.1848145 C129.130371,30.9831543 128.800537,30.8225098 128.386963,30.7028809 C127.973389,30.583252 127.455566,30.5097656 126.833496,30.4824219 L126.833496,30.4824219 L122.95752,30.3081055 C122.533691,30.2875977 122.207275,30.2158203 121.978271,30.0927734 C121.749268,29.9697266 121.634766,29.8022461 121.634766,29.590332 C121.634766,29.371582 121.703125,29.154541 121.839844,28.939209 C121.976562,28.723877 122.144043,28.5341797 122.342285,28.3701172 C122.547363,28.4384766 122.78833,28.4931641 123.065186,28.5341797 C123.342041,28.5751953 123.61377,28.5957031 123.880371,28.5957031 C124.598145,28.5957031 125.254395,28.5085449 125.849121,28.3342285 C126.443848,28.1599121 126.954834,27.9121094 127.38208,27.5908203 C127.809326,27.2695312 128.142578,26.8867188 128.381836,26.4423828 C128.621094,25.9980469 128.740723,25.5024414 128.740723,24.9555664 C128.740723,24.6069336 128.67749,24.2531738 128.551025,23.8942871 C128.424561,23.5354004 128.262207,23.2158203 128.063965,22.9355469 L128.063965,22.9355469 L130.053223,22.9355469 L130.053223,22.0537109 L127.059082,22.0537109 C126.942871,21.9511719 126.783936,21.8554688 126.582275,21.7666016 C126.380615,21.6777344 126.148193,21.5991211 125.88501,21.5307617 C125.621826,21.4624023 125.338135,21.4077148 125.033936,21.3666992 C124.729736,21.3256836 124.42041,21.3051758 124.105957,21.3051758 C123.456543,21.3051758 122.853271,21.4042969 122.296143,21.6025391 C121.739014,21.8007812 121.251953,22.0708008 120.834961,22.4125977 C120.417969,22.7543945 120.091553,23.1542969 119.855713,23.6123047 C119.619873,24.0703125 119.501953,24.5556641 119.501953,25.0683594 C119.501953,25.765625 119.701904,26.3825684 120.101807,26.9191895 C120.501709,27.4558105 121.053711,27.8745117 121.757812,28.175293 C121.463867,28.277832 121.188721,28.4162598 120.932373,28.5905762 C120.676025,28.7648926 120.450439,28.9562988 120.255615,29.1647949 C120.060791,29.373291 119.906982,29.592041 119.794189,29.8210449 C119.681396,30.0500488 119.625,30.2705078 119.625,30.4824219 C119.625,30.6259766 119.65918,30.7609863 119.727539,30.8874512 C119.795898,31.013916 119.891602,31.1318359 120.014648,31.2412109 C120.137695,31.3505859 120.282959,31.447998 120.450439,31.5334473 C120.61792,31.6188965 120.797363,31.6923828 120.98877,31.7539062 C120.722168,31.9589844 120.452148,32.1743164 120.178711,32.3999023 C119.905273,32.6254883 119.655762,32.8596191 119.430176,33.1022949 C119.20459,33.3449707 119.02002,33.5979004 118.876465,33.861084 C118.73291,34.1242676 118.661133,34.3994141 118.661133,34.6865234 C118.661133,35.0146484 118.76709,35.3103027 118.979004,35.5734863 C119.190918,35.8366699 119.512207,36.0622559 119.942871,36.2502441 C120.373535,36.4382324 120.913574,36.5834961 121.562988,36.6860352 C122.212402,36.7885742 122.971191,36.8398438 123.839355,36.8398438 Z M124.229004,28.0522461 C123.873535,28.0522461 123.548828,27.9667969 123.254883,27.7958984 C122.960938,27.625 122.708008,27.3874512 122.496094,27.083252 C122.28418,26.7790527 122.120117,26.421875 122.003906,26.0117188 C121.887695,25.6015625 121.82959,25.1606445 121.82959,24.6889648 C121.82959,24.2924805 121.868896,23.9216309 121.94751,23.576416 C122.026123,23.2312012 122.147461,22.9304199 122.311523,22.6740723 C122.475586,22.4177246 122.685791,22.2177734 122.942139,22.0742188 C123.198486,21.9306641 123.500977,21.8588867 123.849609,21.8588867 C124.205078,21.8588867 124.543457,21.9511719 124.864746,22.1357422 C125.186035,22.3203125 125.466309,22.5749512 125.705566,22.8996582 C125.944824,23.2243652 126.134521,23.6071777 126.274658,24.0480957 C126.414795,24.4890137 126.484863,24.9658203 126.484863,25.4785156 C126.484863,25.8408203 126.42334,26.1774902 126.300293,26.4885254 C126.177246,26.7995605 126.011475,27.0712891 125.802979,27.3037109 C125.594482,27.5361328 125.353516,27.7189941 125.080078,27.8522949 C124.806641,27.9855957 124.522949,28.0522461 124.229004,28.0522461 Z M124.628906,35.4555664 C123.972656,35.4555664 123.396729,35.4077148 122.901123,35.3120117 C122.405518,35.2163086 121.993652,35.0864258 121.665527,34.9223633 C121.337402,34.7583008 121.091309,34.5703125 120.927246,34.3583984 C120.763184,34.1464844 120.681152,33.9243164 120.681152,33.6918945 C120.681152,33.5483398 120.70166,33.3962402 120.742676,33.2355957 C120.783691,33.0749512 120.845215,32.9160156 120.927246,32.7587891 C121.009277,32.6015625 121.108398,32.4511719 121.224609,32.3076172 C121.34082,32.1640625 121.477539,32.0341797 121.634766,31.9179688 C121.77832,31.9384766 122.017578,31.9675293 122.352539,32.005127 C122.6875,32.0427246 123.077148,32.0769043 123.521484,32.107666 C123.96582,32.1384277 124.444336,32.1657715 124.957031,32.1896973 C125.469727,32.213623 125.979004,32.2255859 126.484863,32.2255859 C126.888184,32.2255859 127.250488,32.2529297 127.571777,32.3076172 C127.893066,32.3623047 128.166504,32.4443359 128.39209,32.5537109 C128.617676,32.6630859 128.790283,32.8032227 128.909912,32.9741211 C129.029541,33.1450195 129.089355,33.3466797 129.089355,33.5791016 C129.089355,33.8046875 128.988525,34.0285645 128.786865,34.2507324 C128.585205,34.4729004 128.29126,34.6745605 127.905029,34.8557129 C127.518799,35.0368652 127.050537,35.1821289 126.500244,35.2915039 C125.949951,35.4008789 125.326172,35.4555664 124.628906,35.4555664 Z M134.083008,32 L134.083008,24.2275391 C134.31543,24.0019531 134.558105,23.796875 134.811035,23.6123047 C135.063965,23.4277344 135.318604,23.2687988 135.574951,23.135498 C135.831299,23.0021973 136.08252,22.8979492 136.328613,22.8227539 C136.574707,22.7475586 136.807129,22.7099609 137.025879,22.7099609 C137.271973,22.7099609 137.49585,22.7561035 137.69751,22.8483887 C137.89917,22.9406738 138.075195,23.0756836 138.225586,23.253418 C138.375977,23.4311523 138.492188,23.6516113 138.574219,23.9147949 C138.65625,24.1779785 138.697266,24.4838867 138.697266,24.8325195 L138.697266,24.8325195 L138.697266,32 L140.778809,32 L140.778809,24.4736328 C140.778809,24.0361328 140.710449,23.6242676 140.57373,23.2380371 C140.437012,22.8518066 140.249023,22.5151367 140.009766,22.2280273 C139.770508,21.940918 139.491943,21.715332 139.174072,21.5512695 C138.856201,21.387207 138.512695,21.3051758 138.143555,21.3051758 C137.439453,21.3051758 136.745605,21.4812012 136.062012,21.833252 C135.378418,22.1853027 134.71875,22.7167969 134.083008,23.4277344 L134.083008,23.4277344 L134.083008,21.3051758 L133.488281,21.3051758 L131.991211,21.8896484 L131.991211,32 L134.083008,32 Z" id="mariojdesign" fill="#C4611E" fill-rule="nonzero"></path>
    </g>
</svg>