<?xml version="1.0" encoding="UTF-8"?>
<svg width="751px" height="297px" viewBox="0 0 751 297" version="1.1" xmlns="http://www.w3.org/2000/svg" xmlns:xlink="http://www.w3.org/1999/xlink">
    <title>mjd-logo copy</title>
    <g id="mjd-logo-copy" stroke="none" stroke-width="1" fill="none" fill-rule="evenodd">
        <g id="Group-Copy" transform="translate(-16.000000, -25.000000)" fill-rule="nonzero">
            <path d="M47.4936119,207 L47.4936119,128.51 C47.4936119,108.065 61.3586119,97.02 73.5786119,97.02 C89.3236119,97.02 96.1386119,110.885 96.1386119,128.98 L96.1386119,207 L122.928612,207 L122.928612,127.1 C122.928612,108.3 135.618612,97.02 148.073612,97.02 C164.523612,97.02 171.573612,111.355 171.573612,132.975 L171.573612,207 L198.363612,207 L198.363612,128.745 C198.363612,87.855 177.213612,74.695 157.943612,74.695 C139.378612,74.695 126.688612,84.095 117.993612,98.43 L117.523612,98.43 C112.118612,83.86 99.6636119,74.695 83.2136119,74.695 C63.4736119,74.695 51.7236119,85.74 45.3786119,96.55 L44.6736119,96.55 L43.2636119,77.515 L19.7636119,77.515 C19.7877145,78.0814103 19.811817,78.6472025 19.8358562,79.2129155 L19.9433907,81.7599076 C20.3463995,91.3935963 20.7036119,101.237949 20.7036119,113.94 L20.7036119,207 L47.4936119,207 Z M223.0125,57.54 C232.8825,57.54 238.9925,50.49 238.9925,41.795 C238.9925,32.63 232.8825,25.815 223.2475,25.815 C213.8475,25.815 207.2675,32.63 207.2675,41.795 C207.2675,50.49 213.6125,57.54 223.0125,57.54 Z M180.9475,262.695 C194.3425,262.695 210.7925,258.465 221.1325,248.595 C232.4125,237.55 236.8775,221.57 236.8775,195.25 L236.8775,77.28 L209.6175,77.28 L209.6175,186.79 C209.6175,224.625 206.3275,238.49 178.1275,241.31 L180.9475,262.695 Z" id="mj" fill="#121212"></path>
            <path d="M198.096834,267.585 C216.426834,267.585 230.526834,257.95 237.341834,244.79 L238.046834,244.79 L239.456834,265 L263.426834,265 C263.124691,259.259286 262.822548,251.479107 262.64527,243.532442 L262.607981,241.764537 C262.531862,237.931437 262.486834,234.091905 262.486834,230.455 L262.486834,76.53 L235.226834,76.53 L235.226834,150.085 L234.756834,150.085 C229.116834,140.215 217.131834,132.695 200.446834,132.695 C171.541834,132.695 146.396834,157.605 146.396834,201.55 C146.396834,241.5 168.721834,267.585 198.096834,267.585 Z M206.086834,245.495 C185.406834,245.495 174.126834,225.99 174.126834,200.61 C174.126834,174.995 185.641834,154.315 206.556834,154.315 C221.831834,154.315 235.226834,166.77 235.226834,187.92 L235.226834,211.89 C235.226834,229.985 223.711834,245.495 206.086834,245.495 Z M336.438722,267.585 C354.063722,267.585 368.398722,264.06 377.563722,259.83 L373.098722,240.56 C364.638722,244.085 354.768722,246.67 340.433722,246.67 C319.988722,246.67 301.893722,235.625 301.188722,206.485 L383.438722,206.485 C383.908722,203.195 384.143722,199.435 384.143722,194.97 C384.143722,163.01 369.573722,132.695 333.148722,132.695 C296.488722,132.695 274.868722,163.48 274.868722,202.02 C274.868722,241.5 297.428722,267.585 336.438722,267.585 Z M358.293722,186.98 L301.423722,186.98 C302.833722,171.94 311.293722,152.2 331.268722,152.2 C352.183722,152.2 358.528722,171.47 358.293722,186.98 Z M422.845611,267.585 C452.220611,267.585 471.255611,252.78 471.255611,227.87 C471.255611,209.07 459.975611,197.32 438.590611,188.625 C422.845611,181.81 416.970611,177.345 416.970611,168.415 C416.970611,159.72 423.550611,152.67 435.770611,152.67 C446.345611,152.67 455.275611,156.665 460.445611,159.955 L466.555611,140.215 C459.505611,136.22 448.460611,132.695 435.770611,132.695 C408.510611,132.695 390.885611,149.85 390.885611,171.47 C390.885611,186.51 400.990611,199.435 424.020611,208.6 C439.530611,215.18 444.935611,220.585 444.935611,230.455 C444.935611,240.325 437.885611,247.375 423.315611,247.375 C412.270611,247.375 400.285611,242.675 393.705611,238.68 L387.595611,258.89 C396.290611,264.06 409.215611,267.585 422.845611,267.585 Z M497.0325,115.54 C506.9025,115.54 513.0125,108.49 513.0125,99.795 C513.0125,90.63 506.6675,83.815 497.2675,83.815 C487.8675,83.815 481.2875,90.63 481.2875,99.795 C481.2875,108.49 487.6325,115.54 497.0325,115.54 Z M510.6625,265 L510.6625,135.28 L483.4025,135.28 L483.4025,265 L510.6625,265 Z M574.744389,320.225 C636.079389,320.225 638.194389,272.52 638.194389,246.67 L638.194389,172.88 C638.194389,155.49 638.664389,144.68 639.369389,135.515 L615.164389,135.515 L613.989389,152.905 L613.519389,152.905 C608.114389,142.565 597.304389,132.695 578.034389,132.695 C549.834389,132.695 523.279389,157.135 523.279389,201.08 C523.279389,237.27 544.194389,264.295 574.744389,264.295 C591.429389,264.295 604.119389,256.305 610.699389,245.26 L611.169389,245.26 L611.169389,257.715 C611.169389,287.09 596.129389,298.84 574.979389,298.84 C560.409389,298.84 547.954389,294.375 539.964389,289.675 L533.854389,310.825 C543.959389,316.935 559.704389,320.225 574.744389,320.225 Z M582.734389,243.38 C562.524389,243.38 551.009389,225.285 551.009389,199.905 C551.009389,172.175 564.169389,154.315 582.969389,154.315 C599.654389,154.315 610.934389,168.415 610.934389,185.57 L610.934389,210.95 C610.934389,232.57 596.834389,243.38 582.734389,243.38 Z M685.826278,265 L685.826278,186.98 C685.826278,166.3 700.161278,155.255 713.556278,155.255 C732.121278,155.255 738.231278,170.765 738.231278,189.095 L738.231278,265 L765.491278,265 L765.491278,185.805 C765.491278,145.855 742.931278,132.695 722.721278,132.695 C703.216278,132.695 689.586278,143.74 683.476278,154.785 L682.771278,154.785 L681.361278,135.515 L657.626278,135.515 C658.096278,146.56 658.566278,157.605 658.566278,171.94 L658.566278,265 L685.826278,265 Z" id="design" fill="#F96501"></path>
        </g>
    </g>
</svg>